<?xml version="1.0" standalone="no"?>
<!DOCTYPE svg PUBLIC "-//W3C//DTD SVG 20010904//EN"
 "http://www.w3.org/TR/2001/REC-SVG-20010904/DTD/svg10.dtd">
<svg version="1.0" xmlns="http://www.w3.org/2000/svg"
 width="576.000000pt" height="576.000000pt" viewBox="0 0 576.000000 576.000000"
 preserveAspectRatio="xMidYMid meet">

<g transform="translate(0.000000,576.000000) scale(0.100000,-0.100000)"
fill="#000000" stroke="none">
<path d="M2640 4793 c-703 -32 -1280 -418 -1519 -1018 -205 -514 -254 -1211
-140 -1995 17 -122 62 -368 75 -412 5 -17 35 -18 441 -18 l435 0 94 -89 c243
-232 518 -351 814 -351 305 0 579 123 834 374 l67 66 228 0 c206 0 230 2 235
17 9 22 80 587 105 838 37 363 46 594 33 875 -19 422 -58 610 -177 853 -229
465 -595 749 -1075 831 -126 22 -329 35 -450 29z m580 -1235 c72 -99 255 -278
348 -337 71 -47 80 -55 66 -66 -27 -19 -9 -32 54 -39 42 -5 74 -16 113 -41
l54 -34 -36 -1 c-78 0 -293 -72 -314 -104 -6 -11 -6 -19 3 -28 10 -10 28 -7
90 15 91 32 96 33 82 8 -40 -75 32 -181 122 -181 31 0 83 33 104 65 21 33 22
97 0 130 -17 26 -15 28 21 19 24 -7 42 -44 78 -164 36 -121 48 -231 43 -391
-8 -221 -57 -405 -168 -625 -115 -229 -280 -427 -465 -559 -386 -275 -845
-256 -1222 52 -62 50 -78 68 -78 90 0 22 -15 39 -82 90 -65 50 -95 84 -144
155 -63 95 -123 208 -154 290 -25 67 -48 88 -95 88 -38 0 -40 1 -40 33 0 41
-12 60 -36 55 -12 -2 -20 -13 -22 -31 -2 -15 -8 -27 -13 -27 -27 0 -91 45
-136 94 -81 89 -110 206 -79 326 25 98 93 188 174 229 45 23 298 96 522 150
296 71 461 141 656 276 155 108 366 326 469 483 15 23 31 42 34 42 4 0 27 -28
51 -62z m-1589 -1907 c61 -62 20 -161 -67 -161 -64 0 -109 70 -84 131 26 62
103 77 151 30z"/>
<path d="M2885 3145 c-56 -15 -105 -61 -105 -100 0 -37 14 -38 56 -4 54 43 71
48 219 67 108 14 130 20 133 35 3 15 -8 17 -125 16 -73 0 -149 -6 -178 -14z"/>
<path d="M2863 3021 c-90 -25 -113 -37 -113 -60 0 -29 22 -31 90 -10 34 10 65
19 70 19 4 0 0 -20 -8 -44 -33 -90 24 -171 120 -171 38 0 52 5 77 29 41 39 56
87 42 128 -6 17 -9 33 -7 35 2 2 34 -8 71 -22 78 -29 101 -31 109 -10 10 26
-27 50 -130 85 -126 42 -219 48 -321 21z"/>
<path d="M3488 2693 c-63 -69 -47 -159 55 -317 31 -47 59 -97 63 -111 14 -54
-43 -100 -186 -150 -77 -27 -85 -33 -88 -58 -4 -36 16 -43 82 -28 104 23 222
91 257 147 38 63 25 111 -71 260 -66 104 -77 144 -54 196 13 29 15 44 7 56
-14 24 -46 26 -65 5z"/>
<path d="M1541 2474 c-21 -15 -23 -23 -18 -63 10 -82 46 -180 72 -197 34 -22
79 -1 83 40 4 33 -33 181 -54 214 -17 26 -50 29 -83 6z"/>
<path d="M3300 1698 c-41 -10 -136 -22 -210 -26 -110 -6 -135 -10 -135 -22 0
-11 27 -19 110 -32 61 -10 169 -29 240 -43 150 -29 192 -31 241 -10 47 19 124
76 124 90 0 7 -26 24 -57 37 -49 22 -73 26 -148 25 -53 0 -121 -8 -165 -19z
m270 -27 c11 -2 9 -5 -5 -11 -11 -5 -78 -8 -150 -8 -121 0 -127 1 -85 12 37
10 185 14 240 7z m-35 -71 c-11 -5 -40 -9 -65 -9 -25 0 -54 4 -65 9 -13 6 9 9
65 9 56 0 78 -3 65 -9z"/>
</g>
</svg>
